<?xml version="1.0" encoding="iso-8859-1"?>
<!-- Uploaded to: SVG Repo, www.svgrepo.com, Generator: SVG Repo Mixer Tools -->
<svg fill="#000000" height="800px" width="800px" version="1.1" id="Layer_1" xmlns="http://www.w3.org/2000/svg" xmlns:xlink="http://www.w3.org/1999/xlink" 
	 viewBox="0 0 512 512" xml:space="preserve">
<g>
	<g>
		<g>
			<path d="M309.333,320c29.397,0,53.333-23.936,53.333-53.333V117.333c0-29.397-23.936-53.333-53.333-53.333h-256
				C23.936,64,0,87.936,0,117.333v149.333C0,296.064,23.936,320,53.333,320H64l-19.2,25.6c-2.88,3.819-2.837,9.088,0.064,12.885
				c2.069,2.709,5.227,4.181,8.469,4.181c1.323,0,2.667-0.256,3.947-0.768L162.048,320H309.333z M156.053,299.413l-71.36,28.544
				l9.173-12.245c2.411-3.221,2.795-7.552,1.003-11.157c-1.813-3.605-5.504-5.888-9.536-5.888h-32c-17.643,0-32-14.357-32-32
				V117.333c0-17.643,14.357-32,32-32v-0.021h256.021c17.643,0,32,14.357,32,32v149.333c0,17.643-14.357,32-32,32H160.021
				C158.656,298.645,157.312,298.923,156.053,299.413z"/>
			<path d="M458.667,149.333h-64c-5.888,0-10.667,4.779-10.667,10.667s4.779,10.667,10.667,10.667h64c17.643,0,32,14.357,32,32V352
				c0,17.643-14.357,32-32,32h-32c-4.032,0-7.723,2.283-9.536,5.909c-1.813,3.605-1.429,7.936,1.003,11.157l9.195,12.245
				l-71.36-28.544c-1.28-0.512-2.624-0.768-3.968-0.768H202.667c-17.643,0-32-14.357-32-32c0-5.888-4.779-10.667-10.667-10.667
				s-10.667,4.779-10.667,10.667c0,29.397,23.936,53.333,53.333,53.333h147.285l104.747,41.899c1.301,0.512,2.624,0.768,3.968,0.768
				c3.243,0,6.4-1.472,8.469-4.181c2.901-3.797,2.944-9.067,0.064-12.885l-19.2-25.6h10.667C488.064,405.333,512,381.397,512,352
				V202.667C512,173.269,488.064,149.333,458.667,149.333z"/>
		</g>
	</g>
</g>
</svg>