<?xml version="1.0" encoding="UTF-8"?>
<svg version="1.1" viewBox="0 0 2048 2048" width="1280" height="1280" xmlns="http://www.w3.org/2000/svg">
<path transform="translate(1526,1238)" d="m0 0h22l11 3 9 4 11 7 9 9 9 14 5 13 3 14 1 18-2 21-5 21-8 20-11 21-10 14-8 10-15 15-13 10-15 9-15 7-19 5-6 1h-21l-11-2-9 10-22 22-8 7-14 12-14 11-19 14-30 20-22 13-28 15-25 12-26 10-36 12-41 11-41 7-34 4-14 1h-67l-36-3-39-6-28-6-26-7-41-14-26-11-33-16-22-12-26-16-23-16-17-13-16-13-10-9-8-7-10-9-23-23-9-11-12-13-10-13-14-19-20-30-12-20-12-22-13-28-10-24-7-18-2-7v-8l5-8 6-4 7-1 7 2 5 4 6 12 11 29 11 24 8 17 13 23 14 23 12 17 12 16 9 11 11 13 12 14 30 30 11 9 14 12 20 15 18 13 21 13 21 12 19 10 31 14 35 13 26 8 38 9 36 6 31 3 21 1h35l32-2 30-4 34-6 36-9 36-12 28-11 31-15 23-13 17-10 15-10 20-14 13-10 17-14 15-14 13-12 10-11-7-11-6-13-4-16-1-7v-21l3-20 7-23 9-20 9-15 10-13 12-14 7-7 11-9 15-10 16-8 16-5z" fill="#B1E4EB"/>
<path transform="translate(331,714)" d="m0 0h17l11 4 10 8 10 10 8 13 6 16 1 6v9l-4 17-8 17-9 13-9 10-11 11-4 3h-2l2 5 14 17 10 13 4 5v2l-30 14-20 11-11 7h-2l6 11 17 28 10 17 9 15v2h3l2-5 17-29 17-28 13-22 8-13h68l-2 5-14 24-19 32-24 40-19 32-15 25-1 43v46l-1 1-60 1h-9l-1-1-1-91-17-28-16-27-17-28-4-7v-2l-8 7-17 17-9 11-12 15-3-3-16-36-7-15-16 8-12 4-14 2-13-1-12-4-10-6-8-9-5-12-2-13 1-13 4-13 5-9 7-9 10-10 15-10 19-8 19-5 15-3 8-6 8-10 10-18 8-16 8-14 10-14 9-10 7-8 10-9 18-14 19-11 16-6z" fill="#D4D5D5"/>
<path transform="translate(1025,479)" d="m0 0 40 1 33 3 39 6 32 7 35 10 26 9 26 11 24 11 22 11 25 15 16 10 17 12 16 12 22 18 11 10 8 7 10 9 19 19 7 8 13 15 11 14 15 20 13 19 13 21 14 25 14 28 12 28 13 37 8 25v7l-4 8-6 4-3 1h-9l-8-5-5-10-14-43-11-28-17-35-12-22-14-23-16-23-10-13-13-16-12-13-9-10-14-15-8-7-13-12-8-7-16-13-18-13-24-16-27-16-23-12-37-17-27-10-38-11-36-8-32-5-39-3h-57l-26 2-40 6-27 6-33 9-33 11-24 10-28 13-27 15-22 14-19 13-21 16-16 13-11 10-8 7-21 21-2 3 2 17 10 62v11l-6 12-7 10-12 20-10 18-13 26-10 24-5 8-8 4h-8l-7-3-5-7-1-9 9-24 14-30 13-24 14-23-6-2-19-10-6-2-16 28-12 22-14 31-12 31-7 8-5 2h-10l-6-4-4-6-1-3v-7l13-34 13-29 11-22 12-21 6-10v-3l-22-11-7-4-2 5-14 25-14 27-13 28-10 26-4 8-6 5-2 1h-13l-7-6-3-7 1-10 14-35 16-34 13-25 15-25 9-14 7-6 11-4 89-24 9-4 12-13 19-19 8-7 13-11 14-11 21-16 15-10 19-12 19-11 27-14 24-11 19-8 31-11 43-12 28-6 25-4 28-3 14-1z" fill="#B1E4EB"/>
<path transform="translate(800,954)" d="m0 0h27l16 4 16 8 12 11 3 4v2h3l2-4 7-7 14-9 12-5 11-3 6-1h27l14 3 12 5 11 7 12 12 8 14 5 17 2 13v124l-54 1h-13l-1-2v-98l-1-13-3-10-5-8-5-4-8-3h-13l-11 4-7 6-6 12-2 9-1 106-63 1-5-1-1-108-2-10-6-12-7-5-7-2h-13l-11 4-7 6-6 12-2 11-1 104h-68v-192h65v17l-1 2 13-10 16-8z" fill="#B37335"/>
<path transform="translate(1583,954)" d="m0 0h27l16 4 16 8 12 11 4 5h2l7-8 12-9 13-6 14-4 6-1h28l16 4 16 8 11 9 9 12 5 11 4 14 2 15v122h-68v-98l-1-14-3-10-5-8-5-4-8-3h-13l-11 4-7 6-6 12-2 9-1 106-67 1-1-1-1-108-2-11-6-11-7-5-7-2h-13l-11 4-6 5-5 8-4 15-1 105-67 1-1-1v-192h65v18l8-6 11-7 12-5z" fill="#B37335"/>
<path transform="translate(331,714)" d="m0 0h17l11 4 10 8 10 10 8 13 6 16 1 6v9l-4 17-8 17-9 13-9 10-11 11-4 3h-2l2 5 14 17 10 13 4 5v2l-30 14-20 11-11 7h-2l6 11 17 28 10 17 9 15v2h3l2-5 17-29 17-28 13-22 8-13h68l-2 5-14 24-19 32-24 40-19 32-15 25-1 43v46l-1 1-60 1h-9l-1-1-1-91-17-28-16-27-17-28-4-7v-2l-8 7-17 17-9 11-12 15-3-3-16-36-7-15-16 8-12 4-14 2-13-1-12-4-10-6-8-9-5-12-2-13 1-13 4-13 5-9 7-9 10-10 15-10 19-8 19-5 15-3 8-6 8-10 10-18 8-16 8-14 10-14 9-10 7-8 10-9 18-14 19-11 16-6zm1 6-12 3-16 8-11 7-16 13-10 9-10 10-13 17-12 21-12 24-10 14-3 4 5-1 18-8 11-7 3-1-7 8-11 8-12 5-21 5-18 3-20 6-16 8-11 8-8 8-7 11-4 14-1 6v14l3 11 5 9 7 6 8 4 13 3 14-1 16-5 15-8-1-4-9-6-5-2h-3v-2l18 4 5 4 11 25 12 27 1 2 4-2 10-13 9-10 11-11v-2l4-2 9-9 11-9 18-14 15-10 15-9 28-15 16-8-4-6-13-16-8-10-9-12-2-3-4 2-15 10-19 10-10 4-9 14-8 10-7 7-13 8-14 5-10 1 10-4 12-6 11-9 9-9 7-11-1-4-1 1h-8l13-4 19-9 21-14 14-12 8-9 7-11 5-10 2-8-1 12-3 13-7 12-4 5 1 5 4 5 5-1 15-14v-2h2l10-13 8-16 4-13v-16l-6-20-9-17-8-8-11-6-5-1z" fill="#B37335"/>
<path transform="translate(1254,957)" d="m0 0h68l1 106 3 14 5 8 7 6 10 3h12l10-3 9-6 6-9 4-15 1-104h68v192h-65v-15l1-4-14 11-12 6-13 4-15 2h-10l-16-2-13-4-12-6-9-7-9-9-8-13-6-18-2-12-1-15z" fill="#B37335"/>
<path transform="translate(472,957)" d="m0 0h68l1 109 4 14 6 8 10 5 5 1h12l10-3 8-6 6-8 3-7 2-13 1-100h67l1 3v189l-64 1-1-1-1-18-8 7-14 8-15 5-15 2h-10l-16-2-16-5-11-6-11-9-8-10-8-16-4-15-2-16z" fill="#B37336"/>
<path transform="translate(1349,1203)" d="m0 0 8 1 5 3 5 8v11l-11 24-13 24-18 27-14 18-11 12-7 8-19 19-10 8-18 14-20 14-21 12-21 11-27 11-27 9-30 7-28 4-22 2h-39l-31-3-29-5-30-8-23-8-23-10-19-9-22-13-16-11-16-13-11-9-16-15-14-14-7-8-13-16-11-15-12-19-14-25-1-3v-7l4-8 8-5 7-1 8 3 6 7 12 22 11 17 14 19 13 15 24 24 11 9 15 12 16 11 15 9 21 11 27 11 22 8 25 6 26 4 19 2h40l30-3 30-6 28-8 20-7 20-9 19-10 18-11 15-11 9-7 16-13 23-23 7-8 12-15 18-27 14-25 7-16 6-8 6-4z" fill="#B1E4EC"/>
<path transform="translate(1008,901)" d="m0 0h74l8 13 19 32 17 28 14 24 4-5 13-22 19-32 15-25 8-13h68l-2 5-15 26-17 28-13 22-12 20-19 32-15 25-1 90-68 1-3-1-1-91-17-28-17-29-17-28-19-32-15-25-8-13z" fill="#B37335"/>
<path transform="translate(1e3 683)" d="m0 0h50l34 4 26 5 28 8 25 9 31 15 16 9 19 12 16 11 17 14 12 11 8 7 10 10 7 8 14 17 14 19 12 19 3 9-2 8-4 6-5 3h-11l-6-3-6-7-15-22-9-12-9-11-11-12-19-19-11-9-15-12-15-10-24-14-16-8-25-10-24-8-28-7-19-3-20-2h-44l-22 2-28 5-26 7-18 6-26 11-25 13-19 12-18 13-11 9-13 12-7 4-9 1-8-4-5-7-1-8 3-7 7-8 12-11 14-11 15-11 25-16 27-14 26-11 21-7 32-8 27-5z" fill="#B1E3EB"/>
<path transform="translate(331,714)" d="m0 0h17l11 4 10 8 10 10 8 13 6 16 1 6v9l-4 17-8 17-9 13-9 10-11 11-4 3h-2l2 5 14 17 10 13 4 5v2l-30 14-20 11-14 9-16 11-13 10-13 11-10 9-22 22-9 11-12 15-3-3-16-36-7-15-16 8-12 4-14 2-13-1-12-4-10-6-8-9-5-12-2-13 1-13 4-13 5-9 7-9 10-10 15-10 19-8 19-5 15-3 8-6 8-10 10-18 8-16 8-14 10-14 9-10 7-8 10-9 18-14 19-11 16-6zm1 6-12 3-16 8-11 7-16 13-10 9-10 10-13 17-12 21-12 24-10 14-3 4 5-1 18-8 11-7 3-1-7 8-11 8-12 5-21 5-18 3-20 6-16 8-11 8-8 8-7 11-4 14-1 6v14l3 11 5 9 7 6 8 4 13 3 14-1 16-5 15-8-1-4-9-6-5-2h-3v-2l18 4 5 4 11 25 12 27 1 2 4-2 10-13 9-10 11-11v-2l4-2 9-9 11-9 18-14 15-10 15-9 28-15 16-8-4-6-13-16-8-10-9-12-2-3-4 2-15 10-19 10-10 4-9 14-8 10-7 7-13 8-14 5-10 1 10-4 12-6 11-9 9-9 7-11-1-4-1 1h-8l13-4 19-9 21-14 14-12 8-9 7-11 5-10 2-8-1 12-3 13-7 12-4 5 1 5 4 5 5-1 15-14v-2h2l10-13 8-16 4-13v-16l-6-20-9-17-8-8-11-6-5-1z" fill="#231E19"/>
<path transform="translate(344,772)" d="m0 0h8l5 8 5 25v3l8-2 3-3h4l1 5-7 12-8 10h-2l-2 4-7 7-7 6-5-1-4-6 1-4 9-14 3-9 2-13v-5l-4 13-8 13-9 11-11 10-14 10-15 9-17 8-11 3h8l2-1-1 6-8 11-10 10-10 7-12 6-10 2 4-5 12-8 10-8 3-4v-7l-14-7-1-5 2-2 27-5 16-7 10-6 11-10h2l2-4 9-10 10-15 11-21 6-14z" fill="#B1E3EB"/>
<path transform="translate(330,843)" d="m0 0 3 1 9 13 8 9 13 17 5 6-3 3-23 11-14 7-1-11-6-14-9-14-4-4v-2l-5 2-10 16-7 9-8 8-9 5-17 5-5-1 5-4 10-7 8-8 7-10 7-11 12-5 17-9 16-11z" fill="#B1E3EB"/>
<path transform="translate(262,788)" d="m0 0h6l1 1v9l-5 12-9 14-8 7-8 4-9 6-9 4 1-3 5-5 8-9 9-15 10-17 6-7z" fill="#B1E4EC"/>
<path transform="translate(160,940)" d="m0 0h10l1 4 6 1 10 6 2 2v3l-3 2-9 3-13 3-17 1-7-3 1-4 15-4 1-1 2-12z" fill="#B1E3EB"/>
</svg>
